<?xml version="1.0" encoding="UTF-8" standalone="no"?>
<!DOCTYPE svg PUBLIC "-//W3C//DTD SVG 1.1//EN"
 "http://www.w3.org/Graphics/SVG/1.1/DTD/svg11.dtd">
<!-- Generated by graphviz version 2.38.0 (20140413.2041)
 -->
<!-- Title: AEnvironmentSearchSystem Pages: 1 -->
<svg width="261pt" height="196pt"
 viewBox="0.00 0.00 260.50 196.00" xmlns="http://www.w3.org/2000/svg" xmlns:xlink="http://www.w3.org/1999/xlink">
<g id="graph0" class="graph" transform="scale(1 1) rotate(0) translate(4 192)">
<title>AEnvironmentSearchSystem</title>
<polygon fill="white" stroke="none" points="-4,4 -4,-192 256.5,-192 256.5,4 -4,4"/>
<!-- Node0 -->
<g id="node1" class="node"><title>Node0</title>
<polygon fill="#bfbfbf" stroke="black" points="64,-112.5 64,-131.5 205,-131.5 205,-112.5 64,-112.5"/>
<text text-anchor="middle" x="134.5" y="-119.5" font-family="Helvetica,sans-Serif" font-size="10.00">AEnvironmentSearchSystem</text>
</g>
<!-- Node2 -->
<g id="node3" class="node"><title>Node2</title>
<g id="a_node3"><a xlink:href="class_a_grid_search_system.html" target="_top" xlink:title="AGridSearchSystem">
<polygon fill="white" stroke="black" points="18.5,-56.5 18.5,-75.5 124.5,-75.5 124.5,-56.5 18.5,-56.5"/>
<text text-anchor="middle" x="71.5" y="-63.5" font-family="Helvetica,sans-Serif" font-size="10.00">AGridSearchSystem</text>
</a>
</g>
</g>
<!-- Node0&#45;&gt;Node2 -->
<g id="edge2" class="edge"><title>Node0&#45;&gt;Node2</title>
<path fill="none" stroke="midnightblue" d="M116.46,-105.537C105.227,-95.9087 91.1809,-83.8694 81.8062,-75.8339"/>
<polygon fill="midnightblue" stroke="midnightblue" points="114.508,-108.473 124.378,-112.324 119.063,-103.159 114.508,-108.473"/>
</g>
<!-- Node4 -->
<g id="node5" class="node"><title>Node4</title>
<g id="a_node5"><a xlink:href="class_a_point_search_system.html" target="_top" xlink:title="APointSearchSystem">
<polygon fill="white" stroke="black" points="142.5,-56.5 142.5,-75.5 252.5,-75.5 252.5,-56.5 142.5,-56.5"/>
<text text-anchor="middle" x="197.5" y="-63.5" font-family="Helvetica,sans-Serif" font-size="10.00">APointSearchSystem</text>
</a>
</g>
</g>
<!-- Node0&#45;&gt;Node4 -->
<g id="edge4" class="edge"><title>Node0&#45;&gt;Node4</title>
<path fill="none" stroke="midnightblue" d="M152.54,-105.537C163.773,-95.9087 177.819,-83.8694 187.194,-75.8339"/>
<polygon fill="midnightblue" stroke="midnightblue" points="149.937,-103.159 144.622,-112.324 154.492,-108.473 149.937,-103.159"/>
</g>
<!-- Node1 -->
<g id="node2" class="node"><title>Node1</title>
<polygon fill="white" stroke="#bfbfbf" points="111,-168.5 111,-187.5 158,-187.5 158,-168.5 111,-168.5"/>
<text text-anchor="middle" x="134.5" y="-175.5" font-family="Helvetica,sans-Serif" font-size="10.00">AActor</text>
</g>
<!-- Node1&#45;&gt;Node0 -->
<g id="edge1" class="edge"><title>Node1&#45;&gt;Node0</title>
<path fill="none" stroke="midnightblue" d="M134.5,-157.805C134.5,-148.91 134.5,-138.78 134.5,-131.751"/>
<polygon fill="midnightblue" stroke="midnightblue" points="131,-158.083 134.5,-168.083 138,-158.083 131,-158.083"/>
</g>
<!-- Node3 -->
<g id="node4" class="node"><title>Node3</title>
<g id="a_node4"><a xlink:href="class_a_best_sub_grid_search_system.html" target="_top" xlink:title="ABestSubGridSearchSystem">
<polygon fill="white" stroke="black" points="0,-0.5 0,-19.5 143,-19.5 143,-0.5 0,-0.5"/>
<text text-anchor="middle" x="71.5" y="-7.5" font-family="Helvetica,sans-Serif" font-size="10.00">ABestSubGridSearchSystem</text>
</a>
</g>
</g>
<!-- Node2&#45;&gt;Node3 -->
<g id="edge3" class="edge"><title>Node2&#45;&gt;Node3</title>
<path fill="none" stroke="midnightblue" d="M71.5,-45.8045C71.5,-36.9102 71.5,-26.7798 71.5,-19.7511"/>
<polygon fill="midnightblue" stroke="midnightblue" points="68.0001,-46.083 71.5,-56.083 75.0001,-46.083 68.0001,-46.083"/>
</g>
</g>
</svg>
