<?xml version="1.0" encoding="UTF-8" standalone="no"?>
<!DOCTYPE svg PUBLIC "-//W3C//DTD SVG 1.1//EN"
 "http://www.w3.org/Graphics/SVG/1.1/DTD/svg11.dtd">
<!-- Generated by graphviz version 2.38.0 (20140413.2041)
 -->
<!-- Title: Graphical Class Hierarchy Pages: 1 -->
<svg width="557pt" height="142pt"
 viewBox="0.00 0.00 557.00 142.00" xmlns="http://www.w3.org/2000/svg" xmlns:xlink="http://www.w3.org/1999/xlink">
<g id="graph0" class="graph" transform="scale(1 1) rotate(0) translate(4 138)">
<title>Graphical Class Hierarchy</title>
<polygon fill="white" stroke="none" points="-4,4 -4,-138 553,-138 553,4 -4,4"/>
<!-- Node6 -->
<g id="node1" class="node"><title>Node6</title>
<polygon fill="white" stroke="#bfbfbf" points="0,-38.5 0,-57.5 47,-57.5 47,-38.5 0,-38.5"/>
<text text-anchor="middle" x="23.5" y="-45.5" font-family="Helvetica,sans-Serif" font-size="10.00">AActor</text>
</g>
<!-- Node0 -->
<g id="node2" class="node"><title>Node0</title>
<g id="a_node2"><a xlink:href="class_a_environment_search_system.html" target="_top" xlink:title="AEnvironmentSearchSystem">
<polygon fill="white" stroke="black" points="83,-76.5 83,-95.5 224,-95.5 224,-76.5 83,-76.5"/>
<text text-anchor="middle" x="153.5" y="-83.5" font-family="Helvetica,sans-Serif" font-size="10.00">AEnvironmentSearchSystem</text>
</a>
</g>
</g>
<!-- Node6&#45;&gt;Node0 -->
<g id="edge1" class="edge"><title>Node6&#45;&gt;Node0</title>
<path fill="none" stroke="midnightblue" d="M56.7903,-58.7886C65.2907,-61.546 74.4697,-64.4503 83,-67 93.7863,-70.2241 105.578,-73.5295 116.336,-76.4607"/>
<polygon fill="midnightblue" stroke="midnightblue" points="57.7955,-55.435 47.2029,-55.6492 55.6171,-62.0874 57.7955,-55.435"/>
</g>
<!-- Node11 -->
<g id="node6" class="node"><title>Node11</title>
<g id="a_node6"><a xlink:href="class_a_environment_test_actor.html" target="_top" xlink:title="AEnvironmentTestActor">
<polygon fill="white" stroke="black" points="94,-38.5 94,-57.5 213,-57.5 213,-38.5 94,-38.5"/>
<text text-anchor="middle" x="153.5" y="-45.5" font-family="Helvetica,sans-Serif" font-size="10.00">AEnvironmentTestActor</text>
</a>
</g>
</g>
<!-- Node6&#45;&gt;Node11 -->
<g id="edge5" class="edge"><title>Node6&#45;&gt;Node11</title>
<path fill="none" stroke="midnightblue" d="M57.2252,-48C68.4034,-48 81.2695,-48 93.8572,-48"/>
<polygon fill="midnightblue" stroke="midnightblue" points="57.0892,-44.5001 47.0892,-48 57.0892,-51.5001 57.0892,-44.5001"/>
</g>
<!-- Node14 -->
<g id="node9" class="node"><title>Node14</title>
<g id="a_node9"><a xlink:href="class_a_value_indicator_box.html" target="_top" xlink:title="AValueIndicatorBox">
<polygon fill="white" stroke="black" points="102.5,-0.5 102.5,-19.5 204.5,-19.5 204.5,-0.5 102.5,-0.5"/>
<text text-anchor="middle" x="153.5" y="-7.5" font-family="Helvetica,sans-Serif" font-size="10.00">AValueIndicatorBox</text>
</a>
</g>
</g>
<!-- Node6&#45;&gt;Node14 -->
<g id="edge8" class="edge"><title>Node6&#45;&gt;Node14</title>
<path fill="none" stroke="midnightblue" d="M56.7903,-37.2114C65.2907,-34.454 74.4697,-31.5497 83,-29 93.7863,-25.7759 105.578,-22.4705 116.336,-19.5393"/>
<polygon fill="midnightblue" stroke="midnightblue" points="55.6171,-33.9126 47.2029,-40.3508 57.7955,-40.565 55.6171,-33.9126"/>
</g>
<!-- Node1 -->
<g id="node3" class="node"><title>Node1</title>
<g id="a_node3"><a xlink:href="class_a_grid_search_system.html" target="_top" xlink:title="AGridSearchSystem">
<polygon fill="white" stroke="black" points="262,-114.5 262,-133.5 368,-133.5 368,-114.5 262,-114.5"/>
<text text-anchor="middle" x="315" y="-121.5" font-family="Helvetica,sans-Serif" font-size="10.00">AGridSearchSystem</text>
</a>
</g>
</g>
<!-- Node0&#45;&gt;Node1 -->
<g id="edge2" class="edge"><title>Node0&#45;&gt;Node1</title>
<path fill="none" stroke="midnightblue" d="M204.734,-97.968C227.086,-103.293 253.038,-109.476 274.041,-114.48"/>
<polygon fill="midnightblue" stroke="midnightblue" points="205.288,-94.502 194.749,-95.589 203.665,-101.311 205.288,-94.502"/>
</g>
<!-- Node3 -->
<g id="node5" class="node"><title>Node3</title>
<g id="a_node5"><a xlink:href="class_a_point_search_system.html" target="_top" xlink:title="APointSearchSystem">
<polygon fill="white" stroke="black" points="260,-76.5 260,-95.5 370,-95.5 370,-76.5 260,-76.5"/>
<text text-anchor="middle" x="315" y="-83.5" font-family="Helvetica,sans-Serif" font-size="10.00">APointSearchSystem</text>
</a>
</g>
</g>
<!-- Node0&#45;&gt;Node3 -->
<g id="edge4" class="edge"><title>Node0&#45;&gt;Node3</title>
<path fill="none" stroke="midnightblue" d="M234.534,-86C243.134,-86 251.731,-86 259.922,-86"/>
<polygon fill="midnightblue" stroke="midnightblue" points="234.459,-82.5001 224.459,-86 234.459,-89.5001 234.459,-82.5001"/>
</g>
<!-- Node2 -->
<g id="node4" class="node"><title>Node2</title>
<g id="a_node4"><a xlink:href="class_a_best_sub_grid_search_system.html" target="_top" xlink:title="ABestSubGridSearchSystem">
<polygon fill="white" stroke="black" points="406,-114.5 406,-133.5 549,-133.5 549,-114.5 406,-114.5"/>
<text text-anchor="middle" x="477.5" y="-121.5" font-family="Helvetica,sans-Serif" font-size="10.00">ABestSubGridSearchSystem</text>
</a>
</g>
</g>
<!-- Node1&#45;&gt;Node2 -->
<g id="edge3" class="edge"><title>Node1&#45;&gt;Node2</title>
<path fill="none" stroke="midnightblue" d="M378.213,-124C387.308,-124 396.729,-124 405.975,-124"/>
<polygon fill="midnightblue" stroke="midnightblue" points="378.11,-120.5 368.11,-124 378.11,-127.5 378.11,-120.5"/>
</g>
<!-- Node12 -->
<g id="node7" class="node"><title>Node12</title>
<g id="a_node7"><a xlink:href="class_a_distance_test_actor.html" target="_top" xlink:title="ADistanceTestActor">
<polygon fill="white" stroke="black" points="263,-38.5 263,-57.5 367,-57.5 367,-38.5 263,-38.5"/>
<text text-anchor="middle" x="315" y="-45.5" font-family="Helvetica,sans-Serif" font-size="10.00">ADistanceTestActor</text>
</a>
</g>
</g>
<!-- Node11&#45;&gt;Node12 -->
<g id="edge6" class="edge"><title>Node11&#45;&gt;Node12</title>
<path fill="none" stroke="midnightblue" d="M223.463,-48C236.708,-48 250.356,-48 262.912,-48"/>
<polygon fill="midnightblue" stroke="midnightblue" points="223.439,-44.5001 213.439,-48 223.439,-51.5001 223.439,-44.5001"/>
</g>
<!-- Node13 -->
<g id="node8" class="node"><title>Node13</title>
<g id="a_node8"><a xlink:href="class_a_trace_test_actor.html" target="_top" xlink:title="ATraceTestActor">
<polygon fill="white" stroke="black" points="270.5,-0.5 270.5,-19.5 359.5,-19.5 359.5,-0.5 270.5,-0.5"/>
<text text-anchor="middle" x="315" y="-7.5" font-family="Helvetica,sans-Serif" font-size="10.00">ATraceTestActor</text>
</a>
</g>
</g>
<!-- Node11&#45;&gt;Node13 -->
<g id="edge7" class="edge"><title>Node11&#45;&gt;Node13</title>
<path fill="none" stroke="midnightblue" d="M204.734,-36.032C227.086,-30.7069 253.038,-24.5238 274.041,-19.5201"/>
<polygon fill="midnightblue" stroke="midnightblue" points="203.665,-32.6886 194.749,-38.411 205.288,-39.498 203.665,-32.6886"/>
</g>
</g>
</svg>
